<?xml version="1.0" encoding="utf-8"?>
<!-- Generator: Adobe Illustrator 26.5.0, SVG Export Plug-In . SVG Version: 6.00 Build 0)  -->
<svg version="1.1" id="Layer_1" xmlns="http://www.w3.org/2000/svg" xmlns:xlink="http://www.w3.org/1999/xlink" x="0px" y="0px"
	 viewBox="0 0 512 512" style="enable-background:new 0 0 512 512;" xml:space="preserve">
<style type="text/css">
	.st0{fill:#5B5B5B;}
	.st1{fill:#94CAEF;}
	.st2{fill:#439FDE;}
	.st3{fill:#B2B2B2;}
</style>
<g>
	<g>
		<path class="st0" d="M220.7,229.5c-4.9,0-8.8-3.9-8.8-8.8v-35.3c0-4.9,3.9-8.8,8.8-8.8s8.8,3.9,8.8,8.8v35.3
			C229.5,225.6,225.6,229.5,220.7,229.5"/>
		<path class="st0" d="M300.1,229.5c-4.9,0-8.8-3.9-8.8-8.8v-35.3c0-4.9,3.9-8.8,8.8-8.8c4.9,0,8.8,3.9,8.8,8.8v35.3
			C309,225.6,305,229.5,300.1,229.5"/>
	</g>
	<path class="st1" d="M105.9,238.3c-2.3,0-4.5-0.9-6.2-2.6c-3.5-3.5-3.5-9,0-12.5l97.1-97.1c3.5-3.5,9-3.5,12.5,0
		c3.5,3.5,3.5,9,0,12.5l-97.1,97.1C110.5,237.5,108.2,238.3,105.9,238.3"/>
	<path class="st2" d="M512,240.2c0-10.8-8.7-19.5-19.5-19.5H19.5C8.7,220.7,0,229.4,0,240.2L0,316c0,10.8,8.7,19.5,19.5,19.5h24.7
		c0-29.3,23.7-53,53-53s53,23.7,53,53h211.9c0-29.3,23.7-53,53-53s53,23.7,53,53h24.7c10.8,0,19.5-8.7,19.5-19.5V240.2"/>
	<path class="st0" d="M361.9,335.4c0-29.3,23.7-53,53-53s53,23.7,53,53s-23.7,53-53,53S361.9,364.7,361.9,335.4"/>
	<path class="st3" d="M397.2,335.4c0-9.8,7.9-17.7,17.7-17.7s17.7,7.9,17.7,17.7s-7.9,17.7-17.7,17.7S397.2,345.2,397.2,335.4"/>
	<path class="st0" d="M44.1,335.4c0-29.3,23.7-53,53-53s53,23.7,53,53s-23.7,53-53,53S44.1,364.7,44.1,335.4"/>
	<path class="st3" d="M79.5,335.4c0-9.8,7.9-17.7,17.7-17.7s17.7,7.9,17.7,17.7s-7.9,17.7-17.7,17.7S79.5,345.2,79.5,335.4"/>
	<g>
		<path class="st1" d="M211.9,273.7c-4.9,0-8.8-3.9-8.8-8.8s3.9-8.8,8.8-8.8H256c4.9,0,8.8,3.9,8.8,8.8s-3.9,8.8-8.8,8.8H211.9"/>
		<path class="st1" d="M211.9,291.3c-4.9,0-8.8-3.9-8.8-8.8v-17.7c0-4.9,3.9-8.8,8.8-8.8s8.8,3.9,8.8,8.8v17.7
			C220.7,287.4,216.7,291.3,211.9,291.3"/>
	</g>
	<path class="st0" d="M397.2,158.9c-9.7,0-17.7,7.9-17.7,17.7v44.1h35.3v-44.1C414.9,166.8,407,158.9,397.2,158.9"/>
	<g>
		<path class="st1" d="M0,282.5h35.3c4.9,0,8.8-3.9,8.8-8.8s-3.9-8.8-8.8-8.8H0L0,282.5z"/>
		<path class="st1" d="M476.7,264.8c-4.9,0-8.8,3.9-8.8,8.8s3.9,8.8,8.8,8.8H512v-17.7H476.7"/>
	</g>
</g>
</svg>
